<svg width="93" height="93" fill="none" xmlns="http://www.w3.org/2000/svg"><g clip-path="url(#clip0)" fill="#000"><path d="M83.918 19.617h-7.522L70.594 8.256a1.816 1.816 0 00-1.618-.99H36.981c-.683 0-1.308.382-1.618.99L29.56 19.617h-7.4v-3.814a3.455 3.455 0 00-3.452-3.451h-5.45a3.455 3.455 0 00-3.45 3.45v3.815h-.727C4.074 19.617 0 23.691 0 28.7v47.953c0 5.008 4.074 9.082 9.082 9.082h74.836c5.008 0 9.082-4.074 9.082-9.082V28.7c0-5.008-4.074-9.082-9.082-9.082zm-45.825-8.719h29.771l4.453 8.72H33.64l4.453-8.72zM13.44 15.984h5.086v3.633H13.44v-3.633zm75.926 60.668a5.455 5.455 0 01-5.449 5.45H9.082a5.455 5.455 0 01-5.45-5.45V28.7a5.455 5.455 0 015.45-5.449h74.836a5.455 5.455 0 015.45 5.45v47.952z"/><path d="M52.979 27.61a24.903 24.903 0 00-14.488 4.608A25.006 25.006 0 0029.454 44a1.816 1.816 0 103.409 1.258c3.092-8.383 11.176-14.016 20.116-14.016 11.818 0 21.433 9.615 21.433 21.434 0 11.818-9.615 21.433-21.433 21.433-8.94 0-17.024-5.632-20.116-14.015a1.816 1.816 0 10-3.409 1.257 25.004 25.004 0 009.037 11.783 24.903 24.903 0 0014.488 4.608c13.821 0 25.066-11.245 25.066-25.066 0-13.822-11.245-25.067-25.066-25.067z"/><path d="M52.979 69.75c9.414 0 17.074-7.66 17.074-17.074 0-9.415-7.66-17.074-17.074-17.074-9.415 0-17.075 7.659-17.075 17.074 0 9.415 7.66 17.074 17.075 17.074zm0-30.516c7.411 0 13.441 6.03 13.441 13.442 0 7.411-6.03 13.441-13.441 13.441-7.412 0-13.442-6.03-13.442-13.441 0-7.412 6.03-13.442 13.442-13.442z"/><path d="M52.978 48.026a4.655 4.655 0 014.65 4.65 1.816 1.816 0 103.633 0c0-4.567-3.715-8.283-8.283-8.283a1.816 1.816 0 100 3.633zm-36.994-18.18a5.464 5.464 0 00-5.457 5.457 5.463 5.463 0 005.457 5.457 5.463 5.463 0 005.458-5.457 5.463 5.463 0 00-5.458-5.457zm0 7.281a1.827 1.827 0 01-1.824-1.824c0-1.006.818-1.825 1.824-1.825 1.006 0 1.825.819 1.825 1.825a1.827 1.827 0 01-1.825 1.824zM29.73 54.492a1.816 1.816 0 100-3.633 1.816 1.816 0 000 3.633z"/></g><defs><clipPath id="clip0"><path fill="#fff" d="M0 0h93v93H0z"/></clipPath></defs></svg>