<svg width="93" height="93" fill="none" xmlns="http://www.w3.org/2000/svg"><g clip-path="url(#clip0)"><path d="M89.28 23.259a8.187 8.187 0 00-3.66-6.85 8.188 8.188 0 003.66-6.85C89.28 4.287 84.991 0 79.72 0h-8.657a1.362 1.362 0 100 2.724h8.657a6.842 6.842 0 016.834 6.834 5.47 5.47 0 01-4.609 5.425 1.47 1.47 0 00-.252.063H25.88a2.931 2.931 0 01-2.927-2.928 1.362 1.362 0 00-2.724 0 5.658 5.658 0 005.651 5.652h55.815c.081.029.165.05.252.064a5.47 5.47 0 014.61 5.425c0 3.759-3.051 6.818-6.806 6.834l-.029-.002H20.034l-.038.001c-7.524-.02-13.64-6.147-13.64-13.692 0-7.54 6.136-13.676 13.678-13.676h44.719a1.362 1.362 0 100-2.724h-44.72c-9.043 0-16.4 7.357-16.4 16.416 0 6.72 4.062 12.507 9.86 15.038-5.798 2.533-9.86 8.323-9.86 15.054 0 6.72 4.062 12.507 9.86 15.038-5.798 2.532-9.86 8.322-9.86 15.054a16.39 16.39 0 004.05 10.791 1.362 1.362 0 102.051-1.793 13.673 13.673 0 01-3.377-9.014c0-7.53 6.115-13.656 13.64-13.676h59.752a6.841 6.841 0 016.806 6.834 5.47 5.47 0 01-4.608 5.424 1.454 1.454 0 00-.252.064H25.88a2.931 2.931 0 01-2.928-2.928 1.362 1.362 0 00-2.724 0 5.658 5.658 0 005.651 5.652h55.815a1.5 1.5 0 00.252.064 5.47 5.47 0 014.61 5.424 6.842 6.842 0 01-6.835 6.834H20.034c-1.978 0-3.884-.412-5.667-1.225a1.362 1.362 0 10-1.13 2.478A16.268 16.268 0 0020.034 93H79.72c5.27 0 9.558-4.288 9.558-9.558a8.188 8.188 0 00-3.658-6.85 8.186 8.186 0 003.658-6.85 9.56 9.56 0 00-4.646-8.196 9.562 9.562 0 004.646-8.196 8.185 8.185 0 00-3.658-6.85 8.188 8.188 0 003.658-6.85 9.56 9.56 0 00-4.646-8.195 9.563 9.563 0 004.646-8.196zM86.554 39.65a5.469 5.469 0 01-4.609 5.424 1.472 1.472 0 00-.252.064H25.88a2.932 2.932 0 01-2.927-2.928 1.362 1.362 0 10-2.724 0 5.658 5.658 0 005.651 5.652h55.815a1.5 1.5 0 00.252.064 5.469 5.469 0 014.61 5.424c0 3.759-3.052 6.819-6.807 6.834l-.028-.001H19.997c-7.525-.02-13.64-6.146-13.64-13.69 0-7.53 6.115-13.657 13.64-13.677h59.751a6.842 6.842 0 016.806 6.834z" fill="#000"/></g><defs><clipPath id="clip0"><path fill="#fff" d="M0 0h93v93H0z"/></clipPath></defs></svg>