<svg width="93" height="93" fill="none" xmlns="http://www.w3.org/2000/svg"><g clip-path="url(#clip0)" fill="#000"><path d="M88.704 42.24a44.917 44.917 0 00-8.137-3.286 1.363 1.363 0 00-.767 2.615 42.19 42.19 0 017.644 3.086c.27.141.524.306.762.488-1.488.014-2.95.077-4.085.297-2.535.49-3.067 1.78-3.067 2.774 0 2.8 3.77 5.256 8.068 5.256.39 0 .773-.016 1.153-.041v1.276h-7.05a9.105 9.105 0 00-7.508-3.96 9.104 9.104 0 00-7.509 3.96H29.096a9.105 9.105 0 00-7.509-3.96 9.104 9.104 0 00-7.508 3.96H2.725V51.46h1.834c.752 0 1.362-.61 1.362-1.363V49.07h3.127a3.355 3.355 0 003.351-3.35v-1.174c0-.691-.21-1.356-.607-1.923l-2.774-3.957h3.295c.466 0 .9-.238 1.15-.63 1.7-2.67 4.246-5.116 7.569-7.269a24.74 24.74 0 016.681-3.031 26.52 26.52 0 00-1.224.745c-2.601 1.686-4.798 3.568-6.53 5.593a2.83 2.83 0 00-.444 3 2.807 2.807 0 002.494 1.686l43.837 1.48h.039c.037-.002.074-.003.11-.007H66a33.452 33.452 0 017.83.083 1.361 1.361 0 10.341-2.703 36.294 36.294 0 00-7.84-.151 591.218 591.218 0 00-6.256-5.758 28.356 28.356 0 00-17.47-7.284l-6.34-.34c-5.998-.32-11.778 1.202-16.715 4.4-3.396 2.201-6.073 4.708-7.968 7.462-4.531.02-4.934-.042-5.413.045a3.515 3.515 0 00-2.972 3.468v8.237l-.001.016v1.028H1.912a1.913 1.913 0 00-1.911 1.91v8.335c0 .908.646 1.695 1.532 1.871l11.582 2.34c1.335 3.376 4.628 5.772 8.473 5.772 3.611 0 6.738-2.112 8.21-5.166h5.025a1.362 1.362 0 100-2.725h-4.21a9.08 9.08 0 00-.246-3.642h36.572a9.08 9.08 0 00-.246 3.642H41.18a1.362 1.362 0 100 2.725h26.326c1.473 3.054 4.6 5.166 8.21 5.166 3.612 0 6.739-2.112 8.211-5.166h4.15A4.928 4.928 0 0093 58.875v-9.557a7.964 7.964 0 00-4.296-7.078zm-66.696-6.265c-.03-.07.004-.11.023-.132 3.826-4.475 9.803-8.111 16.678-8.905l2.842.153c.453 1.677 1.065 5.716-.008 9.601l-19.442-.657c-.031 0-.067-.002-.093-.06zm40.246 1.417l-17.928-.606c.822-3.51.554-7.133.074-9.466a25.637 25.637 0 0113.845 6.402 571.3 571.3 0 014.009 3.67zm-52.58 7.153v1.173a.627.627 0 01-.626.626H5.92v-6.89c0-.124.031-.24.082-.344l3.558 5.076c.074.105.113.23.113.36zm-6.95 13.767v-.882H12.81a9.042 9.042 0 00-.32 2.855l-9.764-1.973zm18.863 7.926a6.391 6.391 0 01-6.384-6.384 6.391 6.391 0 016.384-6.384 6.391 6.391 0 016.384 6.384 6.391 6.391 0 01-6.384 6.384zm67.535-15.493c-3.08 0-5.098-1.578-5.323-2.39.564-.326 2.352-.492 5.323-.492.322 0 .642.011.958.032.128.456.195.934.195 1.423V50.7c-.377.03-.762.045-1.153.045zM75.717 66.238a6.391 6.391 0 01-6.384-6.384 6.391 6.391 0 016.384-6.384 6.391 6.391 0 016.384 6.384 6.391 6.391 0 01-6.384 6.384zm12.36-5.166h-3.335a9.08 9.08 0 00-.246-3.642h5.78v1.444a2.2 2.2 0 01-2.198 2.198z"/><path d="M21.587 55.4a4.46 4.46 0 00-4.454 4.454 4.46 4.46 0 004.454 4.454 4.46 4.46 0 004.455-4.454 4.46 4.46 0 00-4.455-4.455zm0 6.184c-.953 0-1.73-.776-1.73-1.73s.777-1.73 1.73-1.73c.954 0 1.73.776 1.73 1.73s-.776 1.73-1.73 1.73zm54.13-6.184a4.46 4.46 0 00-4.455 4.454 4.46 4.46 0 004.455 4.454 4.46 4.46 0 004.454-4.454 4.46 4.46 0 00-4.454-4.455zm0 6.184c-.954 0-1.73-.776-1.73-1.73s.776-1.73 1.73-1.73 1.73.776 1.73 1.73-.776 1.73-1.73 1.73zM46.5 41.539a1.362 1.362 0 100 2.724h.944a1.362 1.362 0 100-2.724H46.5zm-20.36 0a1.362 1.362 0 100 2.724h.944a1.362 1.362 0 100-2.724h-.945z"/></g><defs><clipPath id="clip0"><path fill="#fff" d="M0 0h93v93H0z"/></clipPath></defs></svg>