<svg width="93" height="93" fill="none" xmlns="http://www.w3.org/2000/svg"><g clip-path="url(#clip0)" fill="#000"><path d="M8.62 44.176a1.362 1.362 0 00.964-2.326l-1.756-1.754a17.341 17.341 0 01-5.113-12.343c0-4.662 1.816-9.046 5.113-12.342a17.34 17.34 0 0112.343-5.113 17.34 17.34 0 0112.342 5.113l5.966 5.966a1.363 1.363 0 001.927 0l5.966-5.967a17.399 17.399 0 0122.42-1.91 1.362 1.362 0 101.577-2.224 20.183 20.183 0 00-25.923 2.208l-5.003 5.002-5.003-5.002a20.048 20.048 0 00-14.27-5.911c-5.39 0-10.457 2.1-14.269 5.91-7.868 7.869-7.868 20.671 0 28.54l1.755 1.754c.266.266.615.4.963.4zm83.016 19.81h-4.263a8.756 8.756 0 00-5.781 2.18L65.172 80.59a8.48 8.48 0 01-5.6 2.111H31.258l-14.956-2.778a3.393 3.393 0 111.243-6.67l13.205 2.47c.083.016.166.023.25.023h6.345l10.347 3.037a7.522 7.522 0 006.51-.975l16.321-11.145a1.362 1.362 0 10-1.536-2.25L52.666 75.558a4.809 4.809 0 01-4.171.621l-.024-.007L34.97 72.21a3.9 3.9 0 01-2.783-4.212 3.87 3.87 0 011.58-2.7 3.87 3.87 0 013.053-.678l10.449 2.04c.61.119 1.224-.19 1.491-.752.028-.058 2.815-5.871 7.106-11.59 3.836-5.113 9.687-11.208 15.775-11.208h19.997a1.362 1.362 0 100-2.725h-17.19c5.56-6.908 6.004-16.73.847-24.141a1.362 1.362 0 00-2.237 1.556c4.825 6.935 3.984 16.311-2 22.296l-.327.327c-11.814.896-21.697 18.92-23.96 23.363l-9.429-1.84a6.655 6.655 0 00-5.18 1.15 6.6 6.6 0 00-.721.612L14.198 46.465a1.363 1.363 0 00-1.927 1.927l8.915 8.915a6.103 6.103 0 00-3.175.832 6.1 6.1 0 00-3.021 5.705l-.175-.032a6.099 6.099 0 00-5.033 1.306 6.1 6.1 0 00-2.21 4.706 6.11 6.11 0 003.373 5.465 6.119 6.119 0 004.86 7.314l15.08 2.8c.082.016.166.024.25.024h28.437c2.724 0 5.352-.99 7.399-2.789l16.42-14.426a6.033 6.033 0 013.983-1.502h4.263a1.362 1.362 0 100-2.724zm-60.508 9.037l-13.08-2.447a6.1 6.1 0 00-5.946 2.247 3.39 3.39 0 01-1.805-2.998c0-1.012.447-1.964 1.226-2.61a3.384 3.384 0 012.79-.725l4.435.83a1.362 1.362 0 10.5-2.679l-1.413-.264a3.386 3.386 0 011.547-3.883 3.383 3.383 0 012.872-.256l2.935 1.072 4.711 4.711c-.03.079-.058.158-.086.237h-1.919l-2.264-.423a1.363 1.363 0 00-.501 2.678l2.388.447c.083.015.167.023.25.023h1.688c.118 1.534.643 2.954 1.672 4.04z"/><path d="M32.49 25.23a5 5 0 00-4.307 5.596 5 5 0 005.596 4.306 5 5 0 004.307-5.595 4.998 4.998 0 00-5.595-4.307zm.938 7.2a2.27 2.27 0 11-.291-4.517 2.27 2.27 0 012.247 1.976 2.271 2.271 0 01-1.956 2.541zm10.298-8.662a4.999 4.999 0 00-4.307 5.595 4.96 4.96 0 001.906 3.313 4.955 4.955 0 003.69.994 5 5 0 004.307-5.595 5 5 0 00-5.596-4.307zm.937 7.2a2.255 2.255 0 01-1.676-.452 2.27 2.27 0 011.385-4.066c1.121 0 2.1.835 2.248 1.976a2.27 2.27 0 01-1.957 2.542zM26.17 34.862a5 5 0 00-4.307 5.596 4.96 4.96 0 001.905 3.312 4.955 4.955 0 003.69.995 4.999 4.999 0 004.307-5.596 5 5 0 00-5.595-4.307zm2.893 4.659a2.27 2.27 0 01-3.633 2.09 2.253 2.253 0 01-.866-1.505 2.27 2.27 0 012.251-2.56c1.122 0 2.1.834 2.248 1.975zm24.527 1.844a4.96 4.96 0 003.313-1.906 4.96 4.96 0 00.994-3.69 4.96 4.96 0 00-1.905-3.312 4.961 4.961 0 00-3.69-.995 4.96 4.96 0 00-3.313 1.906 4.96 4.96 0 00-.994 3.69 5 5 0 005.595 4.307zm-2.893-4.659c-.078-.6.082-1.196.452-1.676a2.253 2.253 0 011.802-.885c.497 0 .978.163 1.379.471.48.37.787.904.865 1.505.078.6-.082 1.196-.451 1.676-.37.48-.904.788-1.505.866a2.272 2.272 0 01-2.542-1.957zM37.403 55.794a6.414 6.414 0 003.097-.79 4.305 4.305 0 013.103-.403 6.42 6.42 0 002.818.058c3.07-.615 5.291-3.435 5.167-6.561a6.419 6.419 0 00-3.31-5.394c-1.002-.557-1.722-1.437-2.03-2.476a6.461 6.461 0 00-2.652-3.56c-2.654-1.741-6.242-1.262-8.348 1.114a6.439 6.439 0 00-1.626 4.41 4.298 4.298 0 01-1.072 2.915 6.407 6.407 0 00-1.448 5.586c.628 2.967 3.298 5.101 6.301 5.101zm-2.8-8.895a7.017 7.017 0 001.743-4.761 3.722 3.722 0 015.755-3.191 3.684 3.684 0 011.534 2.055c.512 1.726 1.69 3.176 3.317 4.083a3.713 3.713 0 011.913 3.121c.072 1.801-1.209 3.427-2.98 3.781a3.718 3.718 0 01-1.63-.032 7.024 7.024 0 00-5.063.659 3.711 3.711 0 01-1.57.449 3.732 3.732 0 01-3.854-2.934 3.704 3.704 0 01.835-3.23z"/></g><defs><clipPath id="clip0"><path fill="#fff" d="M0 0h93v93H0z"/></clipPath></defs></svg>