<svg width="93" height="93" fill="none" xmlns="http://www.w3.org/2000/svg"><path d="M59.578 27.61a7.274 7.274 0 00-7.266-7.266h-14.53a1.453 1.453 0 00-1.454 1.453v5.812a7.24 7.24 0 004.445 6.663 7.204 7.204 0 001.789 3.976 7.256 7.256 0 00-4.78 6.799v2.906a1.453 1.453 0 102.906 0v-2.906a4.36 4.36 0 014.359-4.36h5.812a4.36 4.36 0 014.36 4.36v2.906a1.453 1.453 0 102.906 0v-2.906a7.255 7.255 0 00-4.78-6.8 7.204 7.204 0 001.788-3.975 7.24 7.24 0 004.445-6.663zm-20.344 0v-4.36h13.078a4.36 4.36 0 014.36 4.36 4.319 4.319 0 01-1.453 3.222v-.316a4.359 4.359 0 00-4.36-4.36h-5.812a4.36 4.36 0 00-4.36 4.36v.316a4.319 4.319 0 01-1.453-3.223zm13.078 2.906v2.906a4.36 4.36 0 11-8.718 0v-2.906a1.453 1.453 0 011.453-1.453h5.812a1.453 1.453 0 011.453 1.453z" fill="#000"/><path d="M38.63 54.755a1.453 1.453 0 00-.628-1.957 21.76 21.76 0 01-9.242-29.693l.19-.326a21.683 21.683 0 0123.832-10.597 1.453 1.453 0 00.642-2.834 24.577 24.577 0 00-26.027 10.4l-4.895-2.855a10.172 10.172 0 10-12.904 5.73l.023.01a9.985 9.985 0 006.914 0l.023-.01a10.203 10.203 0 004.474-3.222l4.91 2.864a24.557 24.557 0 00-1.307 19.3l-2.838 1.18a10.128 10.128 0 00-13.1-3.964 1.454 1.454 0 101.254 2.616 7.2 7.2 0 013.127-.71 7.242 7.242 0 014.36 13.044 4.329 4.329 0 00-1.134-2.872 4.359 4.359 0 10-6.452 0 4.329 4.329 0 00-1.133 2.872 7.189 7.189 0 01-2.194-8.902 1.454 1.454 0 00-2.623-1.254 10.172 10.172 0 1019.015 1.853l2.834-1.182a24.57 24.57 0 005.737 7.568l-13.72 19.098a10.164 10.164 0 10-8.17 18.555l.023.01a9.985 9.985 0 006.914 0l.023-.01a10.148 10.148 0 003.57-16.863l13.638-18.976c.929.65 1.9 1.236 2.907 1.755a1.452 1.452 0 001.957-.628zM11.625 13.078a1.453 1.453 0 112.905 0 1.453 1.453 0 01-2.905 0zm0 7.12v-1.307a1.453 1.453 0 112.906 0v1.308a7.267 7.267 0 01-2.906 0zm5.813-1.34a4.329 4.329 0 00-1.134-2.874 4.359 4.359 0 10-6.452 0 4.329 4.329 0 00-1.133 2.872 7.266 7.266 0 118.719 0v.001zM13.078 46.5a1.454 1.454 0 110 2.908 1.454 1.454 0 010-2.908zm-1.453 8.574v-1.308a1.453 1.453 0 112.906 0v1.308a7.267 7.267 0 01-2.906 0zm0 24.848a1.453 1.453 0 112.906 0 1.453 1.453 0 01-2.906 0zm0 7.12v-1.308a1.453 1.453 0 112.906 0v1.308a7.263 7.263 0 01-2.906 0zm8.719-7.12a7.235 7.235 0 01-2.907 5.778 4.329 4.329 0 00-1.133-2.872 4.36 4.36 0 10-6.452 0A4.329 4.329 0 008.72 85.7a7.255 7.255 0 1111.625-5.778zm66.813-22.5a1.452 1.452 0 00-.684 1.938 7.189 7.189 0 01-2.192 8.902 4.329 4.329 0 00-1.133-2.871 4.36 4.36 0 10-6.452 0 4.329 4.329 0 00-1.133 2.871 7.244 7.244 0 017.479-12.328 1.453 1.453 0 001.255-2.616 10.126 10.126 0 00-10.847 1.328l-6.29-5.72a24.629 24.629 0 002.37-27.508l2.69-1.715A10.158 10.158 0 0089.094 8.7a1.454 1.454 0 10-2.616 1.254 7.189 7.189 0 01-2.197 8.902 4.329 4.329 0 00-1.133-2.872 4.359 4.359 0 10-6.452 0 4.329 4.329 0 00-1.133 2.872 7.244 7.244 0 017.479-12.329 1.453 1.453 0 001.255-2.615 10.06 10.06 0 00-4.375-1.006 10.152 10.152 0 00-9.265 14.346l-2.681 1.706a24.795 24.795 0 00-8.74-7.497 1.454 1.454 0 00-1.332 2.585 21.831 21.831 0 018.4 7.627c.01.018.01.038.022.057.012.019.05.057.073.087A21.797 21.797 0 0147.953 55.22a21.942 21.942 0 01-4.833-.557 1.453 1.453 0 00-.642 2.834 25.11 25.11 0 004.022.545v11.825a10.172 10.172 0 1011.625 10.056 10.07 10.07 0 00-1-4.378 1.453 1.453 0 10-2.615 1.254 7.188 7.188 0 01-2.197 8.901 4.329 4.329 0 00-1.134-2.87 4.36 4.36 0 10-6.452 0 4.328 4.328 0 00-1.133 2.87 7.244 7.244 0 017.479-12.328 1.452 1.452 0 001.255-2.615 10.14 10.14 0 00-2.922-.888V58.05a24.607 24.607 0 0015.8-6.975l6.292 5.72a10.171 10.171 0 1017.596 1.316 1.455 1.455 0 00-1.937-.69zm-7.235-45.797a1.453 1.453 0 110 2.906 1.453 1.453 0 010-2.906zm-1.453 7.266a1.453 1.453 0 012.906 0v1.308a7.267 7.267 0 01-2.906 0V18.89zM47.953 78.469a1.453 1.453 0 110 2.905 1.453 1.453 0 010-2.905zM46.5 85.734a1.453 1.453 0 112.906 0v1.308a7.266 7.266 0 01-2.906 0v-1.308zm33.422-24.703a1.453 1.453 0 110 2.906 1.453 1.453 0 010-2.906zm-1.453 8.574v-1.308a1.453 1.453 0 112.906 0v1.308a7.267 7.267 0 01-2.906 0z" fill="#000"/></svg>