<svg width="94" height="93" fill="none" xmlns="http://www.w3.org/2000/svg"><path d="M78.018 47.862h4.116c.625 2.626 3.01 4.587 5.853 4.587C91.303 52.45 94 49.782 94 46.5c0-3.28-2.698-5.95-6.013-5.95-2.842 0-5.228 1.962-5.853 4.588h-4.116c-.33-7.445-3.35-14.21-8.12-19.365l6.963-6.89a10.667 10.667 0 006.49 2.19c5.87 0 10.649-4.726 10.649-10.536S89.222 0 83.35 0C77.478 0 72.7 4.727 72.7 10.537c0 2.414.827 4.64 2.214 6.42l-6.964 6.89a31.103 31.103 0 00-19.573-8.035V11.74c2.654-.618 4.636-2.979 4.636-5.79C53.013 2.668 50.316 0 47 0s-6.013 2.669-6.013 5.95c0 2.811 1.982 5.172 4.636 5.79v4.07a31.246 31.246 0 00-8.48 1.55 1.359 1.359 0 00-.868 1.724 1.38 1.38 0 001.742.86A28.536 28.536 0 0147 18.504c15.603 0 28.297 12.56 28.297 27.996 0 15.437-12.694 27.996-28.297 27.996S18.703 61.936 18.703 46.5c0-9.908 5.128-18.879 13.717-23.998a1.354 1.354 0 00.469-1.87 1.385 1.385 0 00-1.89-.464 31.126 31.126 0 00-4.956 3.67l-6.957-6.882a10.41 10.41 0 002.214-6.42C21.3 4.727 16.522 0 10.65 0 4.777 0 0 4.727 0 10.537c0 5.81 4.777 10.536 10.65 10.536 2.44 0 4.69-.818 6.489-2.19l6.955 6.881a30.836 30.836 0 00-4 5.393 30.451 30.451 0 00-4.11 13.98h-4.118c-.625-2.625-3.01-4.587-5.853-4.587C2.698 40.55 0 43.22 0 46.5c0 3.28 2.698 5.95 6.013 5.95 2.842 0 5.228-1.962 5.853-4.588h4.116c.33 7.445 3.35 14.21 8.12 19.365l-6.963 6.89a10.667 10.667 0 00-6.49-2.19C4.778 71.927 0 76.653 0 82.463S4.777 93 10.65 93c5.872 0 10.65-4.727 10.65-10.537 0-2.414-.827-4.64-2.214-6.42l6.964-6.89a31.103 31.103 0 0019.573 8.035v4.072c-2.654.618-4.636 2.979-4.636 5.79 0 3.281 2.697 5.95 6.013 5.95s6.013-2.669 6.013-5.95c0-2.811-1.982-5.172-4.636-5.79v-4.072a31.103 31.103 0 0019.573-8.034l6.964 6.89a10.41 10.41 0 00-2.214 6.42C72.7 88.273 77.478 93 83.35 93 89.223 93 94 88.273 94 82.463c0-5.81-4.778-10.536-10.65-10.536-2.44 0-4.69.818-6.489 2.19l-6.964-6.89c4.771-5.155 7.791-11.92 8.121-19.365zM83.35 2.725c4.354 0 7.896 3.504 7.896 7.812 0 4.307-3.542 7.812-7.896 7.812s-7.896-3.505-7.896-7.812c0-4.308 3.542-7.812 7.896-7.812zM43.74 5.949c0-1.778 1.463-3.224 3.26-3.224 1.797 0 3.26 1.446 3.26 3.224 0 1.779-1.463 3.225-3.26 3.225-1.797 0-3.26-1.446-3.26-3.225zm44.247 37.326c1.797 0 3.26 1.447 3.26 3.225s-1.463 3.225-3.26 3.225c-1.798 0-3.26-1.447-3.26-3.225s1.462-3.225 3.26-3.225zM2.754 10.537c0-4.308 3.542-7.812 7.896-7.812s7.896 3.504 7.896 7.812c0 4.307-3.542 7.812-7.896 7.812s-7.896-3.505-7.896-7.812zm3.26 39.188c-1.798 0-3.26-1.447-3.26-3.225s1.462-3.225 3.26-3.225c1.797 0 3.259 1.447 3.259 3.225s-1.462 3.225-3.26 3.225zm4.636 40.55c-4.354 0-7.896-3.504-7.896-7.812 0-4.307 3.542-7.812 7.896-7.812s7.896 3.505 7.896 7.812c0 4.308-3.542 7.812-7.896 7.812zm39.61-3.225c0 1.779-1.463 3.225-3.26 3.225-1.797 0-3.26-1.446-3.26-3.225 0-1.778 1.463-3.224 3.26-3.224 1.797 0 3.26 1.446 3.26 3.225zm40.986-4.587c0 4.308-3.542 7.812-7.896 7.812s-7.896-3.504-7.896-7.812c0-4.307 3.542-7.812 7.896-7.812s7.896 3.505 7.896 7.812z" fill="#000"/><path d="M65.378 45.84a3.144 3.144 0 00.191-2.44l-2.877-8.72c-.552-1.677-2.38-2.596-4.074-2.049l-1.512.488-1.874-5.682a1.37 1.37 0 00-.89-.875 1.389 1.389 0 00-1.238.203L34.427 40.44l-6.84 2.209a1.372 1.372 0 00-.8.678 1.348 1.348 0 00-.082 1.04l4.028 12.21c.113.343.36.628.685.792a1.388 1.388 0 001.05.08l2.418-.78 4.675 8.873a1.379 1.379 0 001.648.666L46.5 64.5a1.37 1.37 0 00.847-.78c.153-.37.134-.79-.053-1.144l-3.851-7.309 8.015.05h.009a1.37 1.37 0 001.377-1.353 1.37 1.37 0 00-1.369-1.371l-11.38-.072-3.41-10.343 16.523-12.099 1.708 5.18v.002l4.027 12.207v.003l1.709 5.18-2.735-.018a1.368 1.368 0 00-1.385 1.354 1.37 1.37 0 001.368 1.371l4.645.03h.008c.44 0 .853-.208 1.112-.56a1.35 1.35 0 00.197-1.226l-1.874-5.682 1.512-.488a3.202 3.202 0 001.879-1.592zM44.099 62.41l-2.635.85-3.924-7.448 1.768-.57 1.018.006 3.773 7.161zm-6.741-9.405l-4.435 1.431-3.173-9.62 4.435-1.431 3.172 9.62zm25.565-8.399a.474.474 0 01-.278.236l-1.512.488-3.173-9.62 1.512-.489a.48.48 0 01.602.303l2.877 8.722a.466.466 0 01-.028.36z" fill="#000"/></svg>