<svg width="93" height="93" viewBox="0 0 93 93" fill="none" xmlns="http://www.w3.org/2000/svg">
<g clip-path="url(#clip0)">
<path d="M83.918 19.6172H76.3957L70.5941 8.25593C70.2838 7.64816 69.659 7.26562 68.9764 7.26562H36.9806C36.2982 7.26562 35.6733 7.64816 35.3629 8.25593L29.5615 19.6172H22.1602V15.8027C22.1602 13.8997 20.612 12.3516 18.709 12.3516H13.2598C11.3567 12.3516 9.80859 13.8997 9.80859 15.8027V19.6172H9.08203C4.0742 19.6172 0 23.6914 0 28.6992V76.6523C0 81.6602 4.0742 85.7344 9.08203 85.7344H83.918C88.9258 85.7344 93 81.6602 93 76.6523V28.6992C93 23.6914 88.9258 19.6172 83.918 19.6172ZM38.0926 10.8984H67.8644L72.3166 19.6172H33.6404L38.0926 10.8984ZM13.4414 15.9844H18.5273V19.6172H13.4414V15.9844ZM89.3672 76.6523C89.3672 79.657 86.9227 82.1016 83.918 82.1016H9.08203C6.07733 82.1016 3.63281 79.657 3.63281 76.6523V28.6992C3.63281 25.6945 6.07733 23.25 9.08203 23.25H83.918C86.9227 23.25 89.3672 25.6945 89.3672 28.6992V76.6523Z" fill="black"/>
<path d="M52.9786 27.6094C47.7508 27.6094 42.7411 29.2029 38.4909 32.2178C34.3355 35.1656 31.2106 39.24 29.4545 44.0004C29.1072 44.9417 29.5887 45.9861 30.53 46.3333C31.4709 46.6807 32.5155 46.199 32.8628 45.2578C35.9554 36.8747 44.0393 31.2422 52.9786 31.2422C64.797 31.2422 74.4122 40.8573 74.4122 52.6758C74.4122 64.4942 64.797 74.1094 52.9786 74.1094C44.0393 74.1094 35.9554 68.4769 32.8628 60.0938C32.5155 59.1525 31.4707 58.6708 30.53 59.0183C29.5887 59.3654 29.1072 60.4099 29.4545 61.3511C31.2106 66.1116 34.3353 70.1861 38.4909 73.1338C42.7411 76.1487 47.7508 77.7422 52.9786 77.7422C66.8002 77.7422 78.045 66.4974 78.045 52.6758C78.045 38.8542 66.8002 27.6094 52.9786 27.6094Z" fill="black"/>
<path d="M52.9786 69.75C62.3934 69.75 70.0528 62.0906 70.0528 52.6758C70.0528 43.261 62.3934 35.6016 52.9786 35.6016C43.5638 35.6016 35.9044 43.261 35.9044 52.6758C35.9044 62.0906 43.5638 69.75 52.9786 69.75ZM52.9786 39.2344C60.3902 39.2344 66.42 45.2641 66.42 52.6758C66.42 60.0874 60.3902 66.1172 52.9786 66.1172C45.5669 66.1172 39.5372 60.0874 39.5372 52.6758C39.5372 45.2641 45.5669 39.2344 52.9786 39.2344Z" fill="black"/>
<path d="M52.9785 48.0256C55.5428 48.0256 57.6287 50.1116 57.6287 52.6758C57.6287 53.679 58.4419 54.4922 59.4451 54.4922C60.4483 54.4922 61.2615 53.679 61.2615 52.6758C61.2615 48.1086 57.5457 44.3928 52.9785 44.3928C51.9753 44.3928 51.1621 45.206 51.1621 46.2092C51.1621 47.2124 51.9753 48.0256 52.9785 48.0256Z" fill="black"/>
<path d="M15.9843 29.8457C12.9753 29.8457 10.5271 32.2939 10.5271 35.3029C10.5271 38.312 12.9753 40.7601 15.9843 40.7601C18.9934 40.7601 21.4415 38.312 21.4415 35.3029C21.4415 32.2939 18.9934 29.8457 15.9843 29.8457ZM15.9843 37.1273C14.9784 37.1273 14.1599 36.3088 14.1599 35.3029C14.1599 34.297 14.9784 33.4785 15.9843 33.4785C16.9903 33.4785 17.8087 34.297 17.8087 35.3029C17.8087 36.3088 16.9903 37.1273 15.9843 37.1273Z" fill="black"/>
<path d="M29.7291 54.4922C30.7323 54.4922 31.5455 53.679 31.5455 52.6758C31.5455 51.6726 30.7323 50.8594 29.7291 50.8594C28.7259 50.8594 27.9127 51.6726 27.9127 52.6758C27.9127 53.679 28.7259 54.4922 29.7291 54.4922Z" fill="black"/>
</g>
<defs>
<clipPath id="clip0">
<rect width="93" height="93" fill="white"/>
</clipPath>
</defs>
</svg>
