<svg width="93" height="93" viewBox="0 0 93 93" fill="none" xmlns="http://www.w3.org/2000/svg">
<g clip-path="url(#clip0)">
<path d="M88.7045 42.2397C86.0956 40.8774 83.3575 39.7719 80.5666 38.954C79.8446 38.7429 79.0877 39.1561 78.8761 39.8782C78.6645 40.6002 79.0783 41.3571 79.8003 41.5687C82.4206 42.3367 84.9921 43.3749 87.4435 44.655C87.7147 44.7964 87.9679 44.9614 88.2057 45.1427C86.7183 45.1575 85.2555 45.22 84.1213 45.4395C81.586 45.9301 81.0538 47.2194 81.0538 48.2144C81.0538 51.014 84.8241 53.47 89.1223 53.47C89.5112 53.47 89.8953 53.454 90.2755 53.4286V54.7055H83.2255C81.5818 52.316 78.8298 50.7454 75.7168 50.7454C72.6039 50.7454 69.8518 52.316 68.2084 54.7055H29.096C27.4524 52.316 24.7003 50.7454 21.5874 50.7454C18.4744 50.7454 15.7224 52.316 14.0789 54.7055H2.72455V51.4596H4.55912C5.31147 51.4596 5.92142 50.8498 5.92142 50.0973V49.0692H9.04782C10.8956 49.0692 12.3991 47.5659 12.3991 45.7181V44.5454C12.3991 43.8536 12.1891 43.1886 11.792 42.622L9.01839 38.665H12.3134C12.7789 38.665 13.2125 38.427 13.4626 38.0343C15.1624 35.3648 17.7092 32.9193 21.0319 30.766C23.1104 29.4189 25.3577 28.4067 27.713 27.7348C27.2983 27.9729 26.8897 28.2201 26.4893 28.4797C23.888 30.1658 21.6911 32.0476 19.9597 34.0726C19.2406 34.9137 19.0702 36.0635 19.5149 37.0735C19.9564 38.0761 20.9119 38.7218 22.0086 38.7589C22.0086 38.7589 65.8325 40.2394 65.8456 40.2396C65.8587 40.2396 65.8717 40.2385 65.885 40.2382C65.9222 40.2373 65.9593 40.2358 65.9956 40.232L66.0001 40.2318C68.5533 39.9523 71.1873 39.9801 73.8294 40.3145C74.5767 40.4098 75.2575 39.8803 75.3519 39.134C75.4464 38.3876 74.9178 37.7059 74.1712 37.6115C71.5329 37.2774 68.8984 37.2269 66.3305 37.4607C64.1812 35.4549 62.0789 33.52 60.0748 31.7032C55.2726 27.3522 49.0685 24.7653 42.6057 24.4191L36.2643 24.0794C30.2671 23.7594 24.4869 25.2806 19.5499 28.4799C16.1543 30.6802 13.4771 33.1874 11.5817 35.9406C7.05086 35.9602 6.6478 35.8986 6.16918 35.9863C4.48846 36.247 3.19663 37.7001 3.19663 39.4535V47.6913C3.19663 47.6965 3.1959 47.7018 3.1959 47.7071C3.1959 47.7123 3.19663 47.7176 3.19663 47.7229V48.7351H1.91062C0.856918 48.7351 -0.000244141 49.5916 -0.000244141 50.6442V58.9799C-0.000244141 59.8877 0.645852 60.6749 1.53189 60.8511L13.1144 63.191C14.4487 66.5672 17.7424 68.963 21.5872 68.963C25.1984 68.963 28.3253 66.8507 29.7977 63.797H34.8223C35.5746 63.797 36.1846 63.1872 36.1846 62.4347C36.1846 61.6821 35.5746 61.0724 34.8223 61.0724H30.6122C30.6658 60.6737 30.6959 60.2677 30.6959 59.8545C30.6959 59.0151 30.5795 58.2028 30.3659 57.4305H66.9381C66.7245 58.2028 66.6081 59.0151 66.6081 59.8545C66.6081 60.2677 66.6384 60.6737 66.6918 61.0724H41.1797C40.4273 61.0724 39.8174 61.6821 39.8174 62.4347C39.8174 63.1872 40.4273 63.797 41.1797 63.797H67.5063C68.9787 66.8509 72.1056 68.963 75.7166 68.963C79.3278 68.963 82.4548 66.8507 83.9272 63.797H88.0777C90.7919 63.797 93.0001 61.5888 93.0001 58.8745V49.3184C92.9999 46.3349 91.3539 43.6229 88.7045 42.2397ZM22.0084 35.9749C21.9775 35.905 22.0122 35.8646 22.0306 35.8428C25.8567 31.3681 31.8335 27.7317 38.7095 26.9385L41.5511 27.0907C42.004 28.7681 42.6161 32.8069 41.5435 36.6924L22.1007 36.0354C22.0695 36.0343 22.034 36.0332 22.0084 35.9749ZM62.2538 37.3922L44.3264 36.7865C45.1476 33.2757 44.8801 29.6533 44.3996 27.3199C49.5317 27.9936 54.389 30.2274 58.2454 33.7216C59.5443 34.8992 60.8853 36.1275 62.2538 37.3922ZM9.67448 44.5452V45.7179C9.67448 46.0634 9.39348 46.3444 9.04782 46.3444H5.92142V39.4531C5.92142 39.3296 5.95248 39.2143 6.00316 39.11L9.56095 44.1858C9.63506 44.2915 9.67448 44.4159 9.67448 44.5452ZM2.72455 58.312V57.4301H12.8089C12.5502 58.3657 12.4443 59.3141 12.4897 60.2848L2.72455 58.312ZM21.5874 66.2379C18.0674 66.2379 15.2034 63.3739 15.2034 59.8539C15.2034 56.3339 18.0674 53.47 21.5874 53.47C25.1076 53.47 27.9715 56.3339 27.9715 59.8539C27.9715 63.3739 25.1076 66.2379 21.5874 66.2379ZM89.1221 50.7452C86.0429 50.7452 84.0243 49.1671 83.7993 48.3559C84.3633 48.0286 86.1512 47.8629 89.1221 47.8629C89.4441 47.8629 89.764 47.8743 90.0801 47.8951C90.2079 48.3512 90.2753 48.8289 90.2753 49.3178V50.6996C89.8979 50.7297 89.5126 50.7452 89.1221 50.7452ZM75.7166 66.2379C72.1966 66.2379 69.3327 63.3739 69.3327 59.8539C69.3327 56.3339 72.1966 53.47 75.7166 53.47C79.2368 53.47 82.1008 56.3339 82.1008 59.8539C82.1008 63.3739 79.2368 66.2379 75.7166 66.2379ZM88.0775 61.0718H84.7415C84.795 60.6731 84.8252 60.2671 84.8252 59.8539C84.8252 59.0146 84.7088 58.2023 84.4952 57.4299H90.2753V58.874C90.2753 60.0859 89.2894 61.0718 88.0775 61.0718Z" fill="black"/>
<path d="M21.5874 55.3994C19.1313 55.3994 17.1331 57.3976 17.1331 59.8536C17.1331 62.3098 19.1313 64.308 21.5874 64.308C24.0436 64.308 26.0418 62.3098 26.0418 59.8536C26.0418 57.3976 24.0436 55.3994 21.5874 55.3994ZM21.5874 61.5836C20.6336 61.5836 19.8577 60.8076 19.8577 59.8538C19.8577 58.9 20.6336 58.1242 21.5874 58.1242C22.5412 58.1242 23.3172 58.9 23.3172 59.8538C23.3172 60.8076 22.5412 61.5836 21.5874 61.5836Z" fill="black"/>
<path d="M75.7167 55.3994C73.2606 55.3994 71.2623 57.3976 71.2623 59.8536C71.2623 62.3098 73.2606 64.308 75.7167 64.308C78.1729 64.308 80.1711 62.3098 80.1711 59.8536C80.1711 57.3976 78.1729 55.3994 75.7167 55.3994ZM75.7167 61.5836C74.7629 61.5836 73.9869 60.8076 73.9869 59.8538C73.9869 58.9 74.7629 58.1242 75.7167 58.1242C76.6705 58.1242 77.4465 58.9 77.4465 59.8538C77.4465 60.8076 76.6705 61.5836 75.7167 61.5836Z" fill="black"/>
<path d="M46.5 41.5386C45.7476 41.5386 45.1377 42.1483 45.1377 42.9009C45.1377 43.6534 45.7476 44.2632 46.5 44.2632H47.4445C48.1969 44.2632 48.8068 43.6534 48.8068 42.9009C48.8068 42.1483 48.1969 41.5386 47.4445 41.5386H46.5Z" fill="black"/>
<path d="M26.1393 41.5386C25.3869 41.5386 24.777 42.1483 24.777 42.9009C24.777 43.6534 25.3869 44.2632 26.1393 44.2632H27.0838C27.8362 44.2632 28.4461 43.6534 28.4461 42.9009C28.4461 42.1483 27.8362 41.5386 27.0838 41.5386H26.1393Z" fill="black"/>
</g>
<defs>
<clipPath id="clip0">
<rect width="93" height="93" fill="white"/>
</clipPath>
</defs>
</svg>
