<svg width="93" height="93" viewBox="0 0 93 93" fill="none" xmlns="http://www.w3.org/2000/svg">
<g clip-path="url(#clip0)">
<path d="M8.61921 44.1762C8.96782 44.1762 9.31661 44.0433 9.58274 43.7771C10.1148 43.2451 10.1148 42.3824 9.58274 41.8504L7.82808 40.0958C4.53131 36.799 2.71544 32.4156 2.71544 27.7533C2.71544 23.0908 4.53113 18.7075 7.82808 15.4105C11.125 12.1136 15.5081 10.2981 20.1706 10.2981C24.8331 10.2981 29.2164 12.1138 32.5131 15.4105L38.4792 21.3766C39.0117 21.9087 39.8742 21.9083 40.4061 21.3766L46.3724 15.4104C52.4097 9.37307 61.8387 8.56886 68.7929 13.4991C69.4071 13.9344 70.2574 13.7894 70.6923 13.1758C71.1275 12.5619 70.9828 11.7114 70.3689 11.2761C66.5288 8.55378 61.8169 7.262 57.0999 7.63803C52.3286 8.01861 47.8345 10.0946 44.4455 13.4837L39.4429 18.4864L34.4402 13.4837C30.6288 9.67226 25.561 7.573 20.1708 7.573C14.7804 7.573 9.71281 9.67208 5.90121 13.4837C-1.96703 21.3519 -1.96703 34.1544 5.90121 42.0225L7.65587 43.7771C7.92182 44.0431 8.27061 44.1762 8.61921 44.1762Z" fill="black"/>
<path d="M91.6364 63.986H87.3734C85.2444 63.986 83.1911 64.7599 81.5916 66.1652L65.172 80.5914C63.6228 81.9528 61.6336 82.7023 59.5713 82.7023H31.2594L16.3033 79.9243C14.6963 79.6259 13.5301 78.2231 13.5301 76.5889C13.5301 75.5769 13.9766 74.6255 14.7554 73.979C15.5341 73.3323 16.552 73.0687 17.5462 73.2543L30.7511 75.7242C30.8337 75.7396 30.9175 75.7474 31.0016 75.7474H37.3459L47.6929 78.7841C48.4362 79.0155 49.1966 79.1296 49.9518 79.1296C51.4501 79.1296 52.9267 78.6805 54.203 77.8089L70.5244 66.6635C71.1459 66.2392 71.3056 65.3915 70.8812 64.7701C70.4569 64.1486 69.6091 63.9889 68.9878 64.4133L52.6664 75.5587C51.4363 76.3987 49.9157 76.6249 48.4945 76.18C48.4867 76.1774 48.4789 76.1752 48.4711 76.1729L34.9696 72.2103C33.1319 71.671 31.9616 69.8992 32.1873 67.9978C32.3168 66.9049 32.8778 65.9463 33.7668 65.298C34.6562 64.6498 35.74 64.4089 36.82 64.6198L47.2689 66.6597C47.8789 66.7789 48.4927 66.4695 48.7601 65.9082C48.7877 65.8502 51.5749 60.0369 55.8658 54.3181C59.7022 49.2049 65.5533 43.1096 71.6406 43.1096H91.6377C92.3903 43.1096 93.0002 42.4996 93.0002 41.7472C93.0002 40.9948 92.3903 40.3847 91.6377 40.3847H74.4485C80.0078 33.4769 80.452 23.6558 75.2948 16.2438C74.8654 15.6263 74.016 15.4739 73.3985 15.9035C72.7809 16.3333 72.6284 17.1824 73.0583 17.8C77.8833 24.7347 77.0419 34.1115 71.0574 40.0957L70.7308 40.4225C58.9169 41.3188 49.0337 59.3424 46.7711 63.7862L37.3424 61.9454C35.5362 61.5927 33.6484 62.0123 32.1617 63.0961C31.9053 63.283 31.6654 63.4885 31.4406 63.7079L14.198 46.4653C13.6658 45.9332 12.8032 45.9332 12.2711 46.4653C11.7391 46.9974 11.7391 47.8601 12.2711 48.392L21.1863 57.3071C20.0851 57.2893 18.988 57.5696 18.0105 58.1393C16.4335 59.0583 15.357 60.6179 15.0565 62.4183C14.9773 62.8932 14.9572 63.3709 14.9895 63.8442L14.8148 63.8115C13.0205 63.4756 11.1863 63.9522 9.78222 65.118C8.37817 66.2838 7.57269 67.9993 7.57269 69.8244C7.57269 72.1636 8.89936 74.2631 10.9452 75.2886C10.8537 75.7115 10.8055 76.1467 10.8055 76.5887C10.8055 79.5354 12.9084 82.0648 15.8059 82.6031L30.8855 85.4039C30.9674 85.4192 31.0508 85.4268 31.1342 85.4268H59.5716C62.2965 85.4268 64.9242 84.4364 66.9708 82.638L83.3903 68.2118C84.4923 67.2436 85.9071 66.7104 87.3738 66.7104H91.6368C92.3894 66.7104 92.9993 66.1004 92.9993 65.3479C92.9993 64.5955 92.3891 63.986 91.6364 63.986ZM31.1282 73.0227L18.0474 70.5761C16.253 70.2404 14.4189 70.7169 13.0149 71.8826C12.6741 72.1656 12.3692 72.4817 12.1018 72.8233C11.0043 72.2436 10.2974 71.0975 10.2974 69.8248C10.2974 68.8126 10.7439 67.8612 11.5227 67.2147C12.3015 66.5681 13.3188 66.3042 14.3136 66.49L18.7479 67.3195C19.4865 67.4585 20.1993 66.9705 20.3376 66.2308C20.476 65.4913 19.9884 64.7795 19.2489 64.6411L17.8352 64.3766C17.6922 63.8887 17.6596 63.3744 17.744 62.8666C17.9106 61.8682 18.5077 61.0033 19.3822 60.4936C20.2567 59.9841 21.3033 59.8909 22.2543 60.2382L25.1894 61.3104L29.9004 66.0214C29.8695 66.0995 29.8415 66.1789 29.8135 66.2582H27.8954L25.6308 65.8346C24.8925 65.6964 24.1795 66.1836 24.0411 66.9233C23.9027 67.663 24.3902 68.3748 25.1298 68.513L27.5184 68.9597C27.6011 68.9751 27.6848 68.983 27.7689 68.983H29.4556C29.5741 70.5173 30.0993 71.9371 31.1282 73.0227Z" fill="black"/>
<path d="M32.4907 25.2298C29.7607 25.5851 27.8284 28.0951 28.1835 30.8255C28.5107 33.338 30.6624 35.1744 33.1312 35.1744C33.3452 35.1744 33.5614 35.1606 33.779 35.1324C36.509 34.7771 38.4413 32.2669 38.0862 29.5369C38.0862 29.5369 38.0862 29.5369 38.0862 29.5368C37.731 26.8068 35.2225 24.8748 32.4907 25.2298ZM33.4277 32.4304C32.1866 32.593 31.0472 31.7141 30.8859 30.474C30.7244 29.2338 31.6022 28.0935 32.8425 27.932C32.9415 27.9191 33.0396 27.9129 33.1368 27.9129C34.258 27.9129 35.2357 28.7473 35.3843 29.8885C35.5456 31.1287 34.6679 32.2689 33.4277 32.4304Z" fill="black"/>
<path d="M43.7263 23.7676C40.9963 24.1229 39.064 26.6329 39.4191 29.3631C39.5912 30.6857 40.268 31.862 41.3249 32.6756C42.2069 33.3545 43.2654 33.7127 44.3603 33.7127C44.5772 33.7127 44.7959 33.6986 45.0148 33.6702C47.7448 33.3149 49.6771 30.8047 49.322 28.0747C49.322 28.0747 49.322 28.0747 49.322 28.0745C48.9664 25.3445 46.4561 23.413 43.7263 23.7676ZM44.6631 30.9682C44.0625 31.0461 43.4669 30.8859 42.9869 30.5164C42.5066 30.1469 42.1992 29.6125 42.1211 29.0117C41.9596 27.7713 42.8374 26.6312 44.0778 26.4698C44.1766 26.4569 44.2747 26.4507 44.3719 26.4507C45.4935 26.4507 46.4712 27.285 46.6196 28.4264V28.4262C46.7813 29.6666 45.9033 30.8069 44.6631 30.9682Z" fill="black"/>
<path d="M26.1698 34.8623C23.4398 35.2177 21.5075 37.7277 21.8626 40.4578C22.0346 41.7805 22.7115 42.9567 23.7684 43.7702C24.6504 44.4491 25.7089 44.8075 26.8036 44.8075C27.0207 44.8075 27.2394 44.7933 27.4583 44.765C30.1883 44.4097 32.1206 41.8995 31.7654 39.1695C31.7654 39.1695 31.7654 39.1695 31.7654 39.1693C31.4099 36.4391 28.8992 34.5075 26.1698 34.8623ZM29.0631 39.5208C29.2246 40.761 28.3468 41.9013 27.1064 42.0628C26.5049 42.1411 25.9104 41.9805 25.4302 41.611C24.9499 41.2413 24.6425 40.7071 24.5644 40.1063C24.4029 38.8659 25.2807 37.7258 26.5211 37.5643C26.6201 37.5514 26.7182 37.5453 26.8154 37.5453C27.9368 37.5453 28.9145 38.3796 29.0631 39.5208Z" fill="black"/>
<path d="M53.5904 41.3649C54.9129 41.1927 56.0894 40.516 56.9028 39.4591C57.7163 38.4022 58.0695 37.0917 57.8974 35.7692C57.7254 34.4467 57.0485 33.2703 55.9918 32.4568C54.9349 31.6433 53.6246 31.2902 52.3017 31.4622C50.9793 31.6343 49.8028 32.3111 48.9894 33.368C48.1759 34.4249 47.8227 35.7354 47.9948 37.0577C48.3218 39.5704 50.4735 41.4072 52.9426 41.407C53.1565 41.4068 53.373 41.393 53.5904 41.3649ZM50.697 36.706C50.6187 36.1053 50.7791 35.5102 51.1486 35.03C51.5181 34.5499 52.0525 34.2425 52.6533 34.1644C52.7528 34.1515 52.852 34.1452 52.9506 34.1452C53.448 34.1452 53.9289 34.3079 54.3296 34.6162C54.8097 34.9857 55.1171 35.5202 55.1952 36.1209V36.1211C55.2735 36.7218 55.1131 37.317 54.7436 37.7971C54.3741 38.2772 53.8395 38.5846 53.2389 38.6629C51.9989 38.8229 50.8583 37.9464 50.697 36.706Z" fill="black"/>
<path d="M37.4031 55.794C37.5299 55.794 37.6576 55.7901 37.7855 55.7825C38.7495 55.7244 39.6627 55.4626 40.4998 55.0045C41.4497 54.4849 42.5517 54.3418 43.6033 54.6008C44.5281 54.8288 45.4759 54.8484 46.4207 54.6593C49.4909 54.0444 51.7124 51.2236 51.5878 48.0977C51.4974 45.8241 50.2599 43.8077 48.2778 42.7041C47.2765 42.1466 46.5556 41.267 46.2476 40.2277H46.2474C45.8159 38.7713 44.874 37.5073 43.5957 36.6686C40.942 34.9267 37.3535 35.4057 35.2484 37.7823C34.1664 39.0038 33.5886 40.5701 33.6216 42.1927C33.6431 43.256 33.2625 44.291 32.5502 45.1072C31.205 46.649 30.6769 48.685 31.1018 50.6933C31.7298 53.6598 34.3999 55.7941 37.4031 55.794ZM34.6033 46.8988C35.7623 45.5707 36.3812 43.8798 36.346 42.1375C36.3271 41.2016 36.6617 40.2963 37.2884 39.589C38.0118 38.7722 39.0389 38.3442 40.0747 38.3442C40.7767 38.3442 41.483 38.541 42.101 38.9466C42.8523 39.4396 43.3828 40.1503 43.6351 41.0017H43.6349C44.1465 42.7282 45.3247 44.1782 46.9522 45.0847C48.0976 45.7225 48.8128 46.8895 48.8651 48.2064C48.937 50.0074 47.656 51.633 45.8857 51.9874C45.3369 52.0972 44.7881 52.0863 44.2555 51.9551C42.5406 51.5326 40.7423 51.766 39.1922 52.6138C38.7099 52.8778 38.1813 53.0287 37.6212 53.0625C35.7996 53.171 34.145 51.9112 33.768 50.1291C33.5219 48.9666 33.8265 47.7891 34.6033 46.8988Z" fill="black"/>
</g>
<defs>
<clipPath id="clip0">
<rect width="93" height="93" fill="white"/>
</clipPath>
</defs>
</svg>
