<svg width="93" height="93" viewBox="0 0 93 93" fill="none" xmlns="http://www.w3.org/2000/svg">
<g clip-path="url(#clip0)">
<path d="M89.2792 23.2585C89.2792 20.4154 87.8523 17.8881 85.6208 16.4087C87.8523 14.9293 89.2792 12.4019 89.2792 9.55813C89.2792 4.28771 84.9915 0 79.7211 0H71.0641C70.312 0 69.7018 0.60949 69.7018 1.3616C69.7018 2.11441 70.312 2.7239 71.0641 2.7239H79.7211C83.4894 2.7239 86.5553 5.78979 86.5553 9.55813C86.5553 12.2685 84.6169 14.5497 81.9462 14.9825C81.8589 14.9967 81.7752 15.018 81.6943 15.0464H25.8795C24.2653 15.0464 22.952 13.733 22.952 12.1181C22.952 11.366 22.3418 10.7565 21.5897 10.7565C20.8376 10.7565 20.2281 11.366 20.2281 12.1181C20.2281 15.2344 22.7633 17.7703 25.8795 17.7703H81.6943C81.7752 17.7987 81.8589 17.8199 81.9462 17.8341C84.6169 18.2669 86.5553 20.5481 86.5553 23.2585C86.5553 27.0176 83.505 30.0771 79.7495 30.0927C79.7395 30.0927 79.7303 30.0913 79.7211 30.0913H20.0337C20.0209 30.0913 20.0081 30.092 19.9961 30.092C12.4715 30.0715 6.35671 23.9446 6.35671 16.4002C6.35671 8.85924 12.4921 2.7239 20.0337 2.7239H64.7528C65.5056 2.7239 66.1151 2.11441 66.1151 1.3616C66.1151 0.60949 65.5056 0 64.7528 0H20.0337C10.99 0 3.63281 7.35715 3.63281 16.4165C3.63281 23.1351 7.69489 28.9227 13.4925 31.4543C7.69489 33.9867 3.63281 39.7772 3.63281 46.5078C3.63281 53.2271 7.69489 59.0148 13.4925 61.5464C7.69489 64.078 3.63281 69.8685 3.63281 76.5998C3.63281 80.5718 5.07175 84.4047 7.68354 87.3911C8.17879 87.9573 9.03875 88.0155 9.60496 87.5203C10.1712 87.025 10.2293 86.1644 9.73409 85.5981C7.55582 83.1077 6.35671 79.9119 6.35671 76.5835C6.35671 69.0547 12.4722 62.9278 19.9968 62.908C20.0089 62.908 20.0209 62.9087 20.0337 62.9087H79.7211C79.7303 62.9087 79.7395 62.9073 79.7487 62.9073C83.5043 62.9229 86.5553 65.9824 86.5553 69.7415C86.5553 72.4519 84.6169 74.7331 81.9469 75.1659C81.8596 75.1801 81.7752 75.2013 81.695 75.2297H25.8795C24.2653 75.2297 22.952 73.9164 22.952 72.3015C22.952 71.5494 22.3418 70.9399 21.5897 70.9399C20.8376 70.9399 20.2281 71.5494 20.2281 72.3015C20.2281 75.4178 22.7633 77.9536 25.8795 77.9536H81.6943C81.7752 77.982 81.8589 78.0033 81.9462 78.0175C84.6169 78.4503 86.5553 80.7315 86.5553 83.4419C86.5553 87.2102 83.4894 90.2761 79.7211 90.2761H20.0337C18.0562 90.2761 16.1497 89.8639 14.3666 89.0507C13.6819 88.7385 12.8745 89.0401 12.5623 89.7248C12.2501 90.4095 12.5517 91.2169 13.2364 91.5291C15.377 92.5047 17.6638 93 20.0337 93H79.7211C84.9915 93 89.2792 88.7123 89.2792 83.4419C89.2792 80.5981 87.8523 78.0707 85.6208 76.5913C87.8523 75.1127 89.2792 72.5846 89.2792 69.7415C89.2792 66.2662 87.4146 63.2195 84.6332 61.5464C87.4146 59.8726 89.2792 56.8258 89.2792 53.3505C89.2792 50.5067 87.8523 47.9794 85.6208 46.5007C87.8523 45.0213 89.2792 42.494 89.2792 39.6502C89.2792 36.1749 87.4146 33.1281 84.6332 31.455C87.4146 29.7813 89.2792 26.7338 89.2792 23.2585ZM86.5553 39.6502C86.5553 42.3606 84.6169 44.6417 81.9462 45.0738C81.8589 45.088 81.7752 45.11 81.6943 45.1384H25.8795C24.2653 45.1384 22.952 43.8243 22.952 42.2102C22.952 41.4573 22.3418 40.8479 21.5897 40.8479C20.8376 40.8479 20.2281 41.4573 20.2281 42.2102C20.2281 45.3264 22.7633 47.8616 25.8795 47.8616H81.6943C81.7752 47.89 81.8589 47.912 81.9462 47.9262C84.6169 48.3583 86.5553 50.6394 86.5553 53.3498C86.5553 57.1089 83.5043 60.1685 79.7487 60.1841C79.7395 60.1841 79.7303 60.1826 79.7211 60.1826H20.0337C20.0209 60.1826 20.0089 60.1834 19.9968 60.1834C12.4722 60.1635 6.35671 54.0367 6.35671 46.4922C6.35671 38.9633 12.4715 32.8365 19.9961 32.8159C20.0081 32.8159 20.0209 32.8166 20.0337 32.8166H79.7211C79.7303 32.8166 79.7395 32.8159 79.7495 32.8159C83.505 32.8315 86.5553 35.8911 86.5553 39.6502Z" fill="black"/>
</g>
<defs>
<clipPath id="clip0">
<rect width="93" height="93" fill="white"/>
</clipPath>
</defs>
</svg>
