<svg width="94" height="93" viewBox="0 0 94 93" fill="none" xmlns="http://www.w3.org/2000/svg">
<path d="M78.0183 47.8623H82.1341C82.7586 50.4881 85.1447 52.4495 87.9866 52.4495C91.3025 52.4495 94 49.7806 94 46.5C94 43.2194 91.3025 40.5505 87.9866 40.5505C85.1447 40.5505 82.7586 42.5117 82.1341 45.1377H78.0183C77.6882 37.6928 74.6683 30.9278 69.8973 25.773L76.8612 18.8832C78.6593 20.2547 80.9094 21.0732 83.3501 21.0732C89.2223 21.0732 94 16.3466 94 10.5366C94 4.72665 89.2225 0 83.3501 0C77.4777 0 72.7 4.72665 72.7 10.5366C72.7 12.9515 73.5273 15.1775 74.9136 16.9565L67.9497 23.8463C62.7395 19.126 55.9019 16.1382 48.377 15.8116V11.7398C51.031 11.122 53.0134 8.76125 53.0134 5.94946C53.0134 2.66885 50.3159 0 47 0C43.6841 0 40.9866 2.66885 40.9866 5.94946C40.9866 8.76125 42.9688 11.122 45.623 11.7398V15.8105C42.7261 15.9357 39.8799 16.4548 37.1436 17.3603C36.4222 17.599 36.0332 18.371 36.2746 19.0844C36.5161 19.7979 37.2962 20.1825 38.0171 19.9441C40.9038 18.9887 43.9259 18.5045 47 18.5045C62.6027 18.5045 75.2966 31.0633 75.2966 46.5C75.2966 61.9367 62.6027 74.4955 47 74.4955C31.3973 74.4955 18.7034 61.9367 18.7034 46.5C18.7034 36.5924 23.831 27.621 32.4197 22.5018C33.0711 22.1135 33.281 21.2763 32.8886 20.632C32.4963 19.9876 31.6499 19.7798 30.9987 20.1681C29.2237 21.2262 27.5648 22.4597 26.0426 23.8387L19.0864 16.9565C20.4727 15.1775 21.3 12.9515 21.3 10.5366C21.3 4.72665 16.5223 0 10.6499 0C4.77748 0 0 4.72665 0 10.5366C0 16.3466 4.77748 21.0732 10.6499 21.0732C13.0908 21.0732 15.3409 20.2547 17.1388 18.8832L24.0939 25.7641C22.5708 27.4098 21.2258 29.2178 20.0934 31.1574C17.611 35.4098 16.2042 40.2169 15.9837 45.1375H11.8658C11.2414 42.5117 8.85528 40.5504 6.01343 40.5504C2.69754 40.5505 0 43.2194 0 46.5C0 49.7806 2.69754 52.4495 6.01343 52.4495C8.85528 52.4495 11.2414 50.4883 11.8658 47.8623H15.9817C16.3118 55.3072 19.3317 62.0722 24.1027 67.227L17.1388 74.1168C15.3407 72.7453 13.0906 71.9268 10.6499 71.9268C4.77748 71.9268 0 76.6534 0 82.4634C0 88.2733 4.77748 93 10.6499 93C16.5223 93 21.3 88.2733 21.3 82.4634C21.3 80.0485 20.4727 77.8225 19.0864 76.0435L26.0503 69.1537C31.2605 73.874 38.0983 76.8618 45.623 77.1884V81.2602C42.969 81.878 40.9866 84.2387 40.9866 87.0505C40.9866 90.3312 43.6841 93 47 93C50.3159 93 53.0134 90.3312 53.0134 87.0505C53.0134 84.2387 51.0312 81.878 48.377 81.2602V77.1884C55.9019 76.8618 62.7395 73.874 67.9497 69.1537L74.9136 76.0435C73.5273 77.8225 72.7 80.0485 72.7 82.4634C72.7 88.2733 77.4775 93 83.3501 93C89.2225 93 94 88.2733 94 82.4634C94 76.6534 89.2225 71.9268 83.3501 71.9268C80.9092 71.9268 78.6591 72.7453 76.8612 74.1168L69.8973 67.227C74.6683 62.0722 77.6882 55.3072 78.0183 47.8623ZM83.3501 2.72461C87.704 2.72461 91.2461 6.229 91.2461 10.5366C91.2461 14.844 87.704 18.3486 83.3501 18.3486C78.9962 18.3486 75.4539 14.8442 75.4539 10.5366C75.4539 6.229 78.9962 2.72461 83.3501 2.72461ZM43.7405 5.94946C43.7405 4.1712 45.2028 2.72461 47 2.72461C48.7972 2.72461 50.2595 4.1712 50.2595 5.94946C50.2595 7.72772 48.7972 9.1743 47 9.1743C45.2028 9.1743 43.7405 7.72772 43.7405 5.94946ZM87.9866 43.2752C89.7838 43.2752 91.2461 44.7217 91.2461 46.5C91.2461 48.2783 89.7838 49.7248 87.9866 49.7248C86.1894 49.7248 84.7271 48.2783 84.7271 46.5C84.7271 44.7217 86.1894 43.2752 87.9866 43.2752ZM2.75391 10.5366C2.75391 6.229 6.29598 2.72461 10.6499 2.72461C15.0038 2.72461 18.5461 6.229 18.5461 10.5366C18.5461 14.844 15.0038 18.3486 10.6499 18.3486C6.29598 18.3486 2.75391 14.8442 2.75391 10.5366ZM6.01343 49.7248C4.21623 49.7248 2.75391 48.2783 2.75391 46.5C2.75391 44.7217 4.21623 43.2752 6.01343 43.2752C7.81063 43.2752 9.27295 44.7217 9.27295 46.5C9.27295 48.2783 7.81063 49.7248 6.01343 49.7248ZM10.6499 90.2754C6.29598 90.2754 2.75391 86.771 2.75391 82.4634C2.75391 78.156 6.29598 74.6514 10.6499 74.6514C15.0038 74.6514 18.5461 78.1558 18.5461 82.4634C18.5461 86.771 15.0038 90.2754 10.6499 90.2754ZM50.2595 87.0505C50.2595 88.8288 48.7972 90.2754 47 90.2754C45.2028 90.2754 43.7405 88.8288 43.7405 87.0505C43.7405 85.2723 45.2028 83.8257 47 83.8257C48.7972 83.8257 50.2595 85.2723 50.2595 87.0505ZM91.2461 82.4634C91.2461 86.771 87.704 90.2754 83.3501 90.2754C78.9962 90.2754 75.4539 86.771 75.4539 82.4634C75.4539 78.156 78.9962 74.6514 83.3501 74.6514C87.704 74.6514 91.2461 78.1558 91.2461 82.4634Z" fill="black"/>
<path d="M65.3779 45.8405C65.769 45.0791 65.8369 44.2127 65.569 43.4007L62.6925 34.6791C62.1399 33.0031 60.3122 32.0838 58.6182 32.6313L57.1061 33.1193L55.232 27.4371C55.0947 27.0208 54.7634 26.6953 54.3417 26.5619C53.9206 26.4286 53.4594 26.5042 53.1038 26.7646L34.4271 40.4405L27.5872 42.6486C27.2398 42.7606 26.9519 43.0046 26.7867 43.3266C26.6213 43.6487 26.5919 44.0227 26.7054 44.3662L30.7325 56.5768C30.8458 56.9203 31.0923 57.2051 31.4178 57.3687C31.613 57.4668 31.8267 57.5164 32.0413 57.5164C32.1851 57.5164 32.3292 57.4941 32.4684 57.4492L34.8857 56.6687L39.5613 65.5424C39.8039 66.0026 40.2808 66.2753 40.7822 66.2751C40.9241 66.2751 41.0683 66.2533 41.2093 66.2077L46.4986 64.5003C46.8836 64.3761 47.1935 64.0907 47.3464 63.72C47.4994 63.3492 47.4797 62.9306 47.2925 62.5756L43.4416 55.2673L51.4569 55.3176H51.4659C52.2221 55.3176 52.8379 54.7133 52.8427 53.9641C52.8475 53.2117 52.2348 52.5979 51.4745 52.593L40.0949 52.5215L36.6837 42.1779L53.2066 30.079L54.9147 35.2582C54.9149 35.2585 54.9149 35.2591 54.9151 35.2594C54.9153 35.2598 54.9155 35.2602 54.9156 35.2607L58.9417 47.4682C58.9419 47.4689 58.942 47.4695 58.9422 47.4702C58.9424 47.4706 58.9426 47.4709 58.9428 47.4713L60.6509 52.6506L57.9165 52.6334C57.1601 52.6214 56.5357 53.2346 56.5307 53.9871C56.5259 54.7395 57.1386 55.3532 57.8989 55.358L62.5436 55.3872H62.5524C62.9918 55.3872 63.405 55.1798 63.6644 54.8285C63.9255 54.4748 63.9988 54.0187 63.8614 53.6024L61.9873 47.9201L63.4992 47.4321C64.3197 47.1671 64.9869 46.602 65.3779 45.8405ZM44.0992 62.4091L41.4641 63.2597L37.5398 55.8121L39.308 55.2412L40.3256 55.2475L44.0992 62.4091ZM37.3575 53.005L32.9231 54.4365L29.7504 44.8163L34.1848 43.3848L37.3575 53.005ZM62.9227 44.6065C62.8891 44.6717 62.8087 44.789 62.6449 44.8419L61.133 45.33L57.9604 35.7095L59.4723 35.2215C59.6362 35.1686 59.771 35.2164 59.8367 35.2494C59.9024 35.2827 60.021 35.3624 60.0744 35.5243L62.951 44.2459C63.0044 44.4078 62.9561 44.5413 62.9227 44.6065Z" fill="black"/>
</svg>
