<svg width="93" height="93" viewBox="0 0 93 93" fill="none" xmlns="http://www.w3.org/2000/svg">
<path d="M59.5781 27.6094C59.5758 25.6831 58.8096 23.8364 57.4475 22.4744C56.0855 21.1123 54.2388 20.3461 52.3125 20.3438H37.7812C37.3959 20.3438 37.0262 20.4968 36.7537 20.7694C36.4812 21.0419 36.3281 21.4115 36.3281 21.7969V27.6094C36.3312 29.0341 36.7547 30.4262 37.5454 31.6114C38.3361 32.7965 39.4589 33.722 40.7732 34.272C40.9445 35.7502 41.5694 37.139 42.562 38.2477C41.1646 38.7547 39.9566 39.6788 39.1015 40.8949C38.2465 42.1109 37.7856 43.5603 37.7812 45.0469V47.9531C37.7812 48.3385 37.9343 48.7081 38.2069 48.9806C38.4794 49.2532 38.849 49.4063 39.2344 49.4063C39.6198 49.4063 39.9894 49.2532 40.2619 48.9806C40.5344 48.7081 40.6875 48.3385 40.6875 47.9531V45.0469C40.6875 43.8907 41.1468 42.7819 41.9643 41.9643C42.7819 41.1468 43.8907 40.6875 45.0469 40.6875H50.8594C52.0156 40.6875 53.1244 41.1468 53.9419 41.9643C54.7595 42.7819 55.2188 43.8907 55.2188 45.0469V47.9531C55.2188 48.3385 55.3718 48.7081 55.6444 48.9806C55.9169 49.2532 56.2865 49.4063 56.6719 49.4063C57.0573 49.4063 57.4269 49.2532 57.6994 48.9806C57.9719 48.7081 58.125 48.3385 58.125 47.9531V45.0469C58.1207 43.5603 57.6598 42.1109 56.8047 40.8949C55.9496 39.6788 54.7417 38.7547 53.3442 38.2477C54.3368 37.139 54.9617 35.7502 55.133 34.272C56.4473 33.722 57.5702 32.7965 58.3609 31.6114C59.1516 30.4262 59.575 29.0341 59.5781 27.6094ZM39.2344 27.6094V23.25H52.3125C53.4687 23.25 54.5775 23.7093 55.395 24.5268C56.2126 25.3444 56.6719 26.4532 56.6719 27.6094C56.6707 28.2187 56.5407 28.8209 56.2902 29.3764C56.0398 29.9319 55.6746 30.4281 55.2188 30.8324V30.5156C55.2188 29.3594 54.7595 28.2506 53.9419 27.4331C53.1244 26.6155 52.0156 26.1563 50.8594 26.1563H45.0469C43.8907 26.1563 42.7819 26.6155 41.9643 27.4331C41.1468 28.2506 40.6875 29.3594 40.6875 30.5156V30.8324C40.2316 30.4281 39.8665 29.9319 39.616 29.3764C39.3656 28.8209 39.2355 28.2187 39.2344 27.6094ZM52.3125 30.5156V33.4219C52.3125 34.5781 51.8532 35.6869 51.0357 36.5044C50.2181 37.322 49.1093 37.7813 47.9531 37.7813C46.7969 37.7813 45.6881 37.322 44.8706 36.5044C44.053 35.6869 43.5938 34.5781 43.5938 33.4219V30.5156C43.5938 30.1302 43.7468 29.7606 44.0194 29.4881C44.2919 29.2156 44.6615 29.0625 45.0469 29.0625H50.8594C51.2448 29.0625 51.6144 29.2156 51.8869 29.4881C52.1594 29.7606 52.3125 30.1302 52.3125 30.5156Z" fill="black"/>
<path d="M38.6299 54.7552C38.7172 54.5855 38.7703 54.4002 38.786 54.21C38.8018 54.0198 38.7798 53.8283 38.7215 53.6465C38.6633 53.4647 38.5697 53.2962 38.4463 53.1506C38.3228 53.005 38.1719 52.8852 38.0021 52.7979C35.4238 51.4782 33.1349 49.6571 31.2696 47.4413C29.4042 45.2255 28 42.6596 27.1393 39.8941C26.2785 37.1285 25.9785 34.219 26.2568 31.336C26.5352 28.453 27.3863 25.6545 28.7603 23.1047L28.9506 22.7792C31.2353 18.6664 34.7957 15.4082 39.0946 13.4965C43.3935 11.5848 48.1976 11.1233 52.7819 12.1816C53.1539 12.2569 53.5406 12.1837 53.8594 11.9776C54.1781 11.7714 54.4035 11.4488 54.4874 11.0786C54.5714 10.7084 54.5071 10.3201 54.3084 9.99667C54.1097 9.67326 53.7923 9.44044 53.4242 9.348C48.543 8.22253 43.4345 8.61547 38.7829 10.4742C34.1312 12.3329 30.1587 15.5687 27.3972 19.748L22.5017 16.8926C23.2646 15.0139 23.4486 12.9501 23.0301 10.9661C22.6116 8.98206 21.6097 7.16838 20.153 5.75788C18.6963 4.34738 16.8513 3.40443 14.8548 3.05008C12.8583 2.69574 10.8015 2.94617 8.94838 3.76922C7.09525 4.59228 5.5304 5.9504 4.45471 7.66923C3.37902 9.38806 2.84158 11.3892 2.91139 13.4156C2.9812 15.4421 3.65507 17.4015 4.8465 19.0422C6.03793 20.683 7.69253 21.9302 9.59791 22.6237L9.62116 22.6325C11.8523 23.4559 14.304 23.4559 16.5351 22.6325L16.5584 22.6237C18.3173 21.9804 19.8652 20.8653 21.0325 19.4007L25.9427 22.2648C24.4293 25.2258 23.5331 28.4632 23.3083 31.7808C23.0835 35.0985 23.5348 38.4272 24.6348 41.5652L21.7969 42.7452C20.5049 40.5656 18.4429 38.9495 16.0178 38.2156C13.5927 37.4818 10.9806 37.6835 8.69697 38.781C8.51313 38.8556 8.34651 38.967 8.20737 39.1084C8.06823 39.2498 7.95952 39.4182 7.88793 39.6032C7.81634 39.7882 7.78339 39.986 7.79111 40.1842C7.79883 40.3824 7.84706 40.577 7.93283 40.7558C8.01859 40.9347 8.14007 41.0942 8.28979 41.2243C8.43951 41.3545 8.61429 41.4526 8.80337 41.5126C8.99245 41.5726 9.19181 41.5933 9.38919 41.5734C9.58656 41.5535 9.77777 41.4933 9.95101 41.3967C10.9268 40.9282 11.9957 40.6859 13.0781 40.6875C14.6016 40.6817 16.0881 41.1566 17.3261 42.0445C18.5641 42.9324 19.4904 44.1882 19.9734 45.6331C20.4563 47.078 20.4712 48.6385 20.0159 50.0923C19.5606 51.5462 18.6583 52.8194 17.4375 53.7308C17.4254 52.6669 17.0219 51.6447 16.3041 50.8594C16.8721 50.2345 17.2464 49.458 17.3814 48.6244C17.5165 47.7907 17.4065 46.9358 17.0648 46.1635C16.7231 45.3912 16.1644 44.7348 15.4567 44.274C14.749 43.8132 13.9227 43.5679 13.0781 43.5679C12.2336 43.5679 11.4073 43.8132 10.6996 44.274C9.99184 44.7348 9.43319 45.3912 9.09151 46.1635C8.74982 46.9358 8.63982 47.7907 8.77486 48.6244C8.9099 49.458 9.28418 50.2345 9.8522 50.8594C9.13436 51.6447 8.73087 52.6669 8.71876 53.7308C7.37393 52.7345 6.4189 51.3001 6.01834 49.6751C5.61778 48.05 5.79681 46.3361 6.52455 44.829C6.60689 44.6567 6.6545 44.47 6.66467 44.2794C6.67484 44.0887 6.64736 43.898 6.5838 43.718C6.52025 43.538 6.42186 43.3722 6.29426 43.2303C6.16666 43.0883 6.01235 42.9728 5.84012 42.8905C5.6679 42.8081 5.48115 42.7605 5.29053 42.7504C5.0999 42.7402 4.90914 42.7677 4.72914 42.8312C4.54914 42.8948 4.38341 42.9932 4.24143 43.1208C4.09945 43.2484 3.984 43.4027 3.90165 43.5749C3.19302 45.0502 2.85082 46.6746 2.90411 48.3104C2.9574 49.9461 3.4046 51.5449 4.20775 52.9709C5.0109 54.3969 6.14628 55.608 7.5175 56.5015C8.88872 57.395 10.4553 57.9444 12.0842 58.1031C13.7131 58.2618 15.3563 58.0251 16.8742 57.4132C18.3921 56.8012 19.7399 55.832 20.8032 54.5878C21.8665 53.3437 22.6139 51.8613 22.9819 50.2666C23.35 48.6719 23.3278 47.0119 22.9172 45.4276L25.7508 44.2463C27.1528 47.118 29.1015 49.6886 31.4878 51.8141L17.7688 70.9125C16.5348 70.2602 15.1797 69.869 13.7879 69.7634C12.3961 69.6578 10.9974 69.84 9.67912 70.2987C8.36082 70.7574 7.15113 71.4827 6.12547 72.4294C5.09981 73.3762 4.28016 74.524 3.71763 75.8015C3.15509 77.0789 2.86172 78.4585 2.8558 79.8543C2.84989 81.2502 3.13156 82.6322 3.68326 83.9144C4.23495 85.1965 5.04484 86.3513 6.06244 87.3067C7.08004 88.2621 8.28354 88.9977 9.59791 89.4675L9.62116 89.4762C11.8523 90.2996 14.304 90.2996 16.5351 89.4762L16.5584 89.4675C18.1807 88.8799 19.6263 87.8884 20.7588 86.5866C21.8912 85.2848 22.673 83.7158 23.0302 82.0277C23.3874 80.3397 23.3083 78.5885 22.8004 76.9395C22.2924 75.2906 21.3724 73.7984 20.1273 72.604L33.7663 53.6276C34.6946 54.2773 35.6655 54.8637 36.6725 55.383C36.8423 55.4704 37.0275 55.5234 37.2178 55.5391C37.408 55.5549 37.5995 55.533 37.7813 55.4747C37.963 55.4164 38.1315 55.3228 38.2772 55.1994C38.4228 55.0759 38.5426 54.925 38.6299 54.7552ZM11.625 13.0782C11.625 12.7908 11.7102 12.5098 11.8699 12.2709C12.0296 12.0319 12.2565 11.8456 12.5221 11.7357C12.7876 11.6257 13.0798 11.5969 13.3616 11.653C13.6435 11.709 13.9024 11.8474 14.1057 12.0507C14.3089 12.2539 14.4473 12.5128 14.5033 12.7947C14.5594 13.0766 14.5306 13.3687 14.4207 13.6343C14.3107 13.8998 14.1244 14.1267 13.8855 14.2864C13.6465 14.4461 13.3655 14.5313 13.0781 14.5313C12.6927 14.5313 12.3231 14.3782 12.0506 14.1057C11.7781 13.8332 11.625 13.4636 11.625 13.0782ZM11.625 20.1985V18.8907C11.625 18.5053 11.7781 18.1357 12.0506 17.8632C12.3231 17.5906 12.6927 17.4375 13.0781 17.4375C13.4635 17.4375 13.8331 17.5906 14.1057 17.8632C14.3782 18.1357 14.5313 18.5053 14.5313 18.8907V20.1985C13.5724 20.3942 12.5839 20.3942 11.625 20.1985ZM17.4375 18.8572C17.4258 17.7929 17.0223 16.7701 16.3041 15.9844C16.8721 15.3595 17.2464 14.583 17.3814 13.7494C17.5165 12.9157 17.4065 12.0608 17.0648 11.2885C16.7231 10.5162 16.1644 9.85976 15.4567 9.39898C14.749 8.9382 13.9227 8.6929 13.0781 8.6929C12.2336 8.6929 11.4073 8.9382 10.6996 9.39898C9.99184 9.85976 9.43319 10.5162 9.09151 11.2885C8.74982 12.0608 8.63982 12.9157 8.77486 13.7494C8.9099 14.583 9.28418 15.3595 9.8522 15.9844C9.13436 16.7697 8.73087 17.7919 8.71876 18.8558C7.49882 17.9408 6.59769 16.6652 6.143 15.2097C5.68832 13.7541 5.70314 12.1924 6.18536 10.7457C6.66759 9.29903 7.59277 8.04075 8.82985 7.14911C10.0669 6.25747 11.5532 5.77767 13.0781 5.77767C14.6031 5.77767 16.0893 6.25747 17.3264 7.14911C18.5635 8.04075 19.4887 9.29903 19.9709 10.7457C20.4531 12.1924 20.468 13.7541 20.0133 15.2097C19.5586 16.6652 18.6575 17.9408 17.4375 18.8558V18.8572ZM13.0781 46.5C13.3655 46.5 13.6465 46.5853 13.8855 46.7449C14.1244 46.9046 14.3107 47.1316 14.4207 47.3971C14.5306 47.6626 14.5594 47.9548 14.5033 48.2367C14.4473 48.5185 14.3089 48.7775 14.1057 48.9807C13.9024 49.1839 13.6435 49.3223 13.3616 49.3784C13.0798 49.4344 12.7876 49.4057 12.5221 49.2957C12.2565 49.1857 12.0296 48.9994 11.8699 48.7605C11.7102 48.5215 11.625 48.2406 11.625 47.9532C11.625 47.5678 11.7781 47.1982 12.0506 46.9257C12.3231 46.6531 12.6927 46.5 13.0781 46.5ZM11.625 55.0735V53.7657C11.625 53.3803 11.7781 53.0107 12.0506 52.7382C12.3231 52.4656 12.6927 52.3125 13.0781 52.3125C13.4635 52.3125 13.8331 52.4656 14.1057 52.7382C14.3782 53.0107 14.5313 53.3803 14.5313 53.7657V55.0735C13.5724 55.2692 12.5839 55.2692 11.625 55.0735ZM11.625 79.9219C11.625 79.6345 11.7102 79.3536 11.8699 79.1146C12.0296 78.8756 12.2565 78.6894 12.5221 78.5794C12.7876 78.4694 13.0798 78.4407 13.3616 78.4967C13.6435 78.5528 13.9024 78.6912 14.1057 78.8944C14.3089 79.0976 14.4473 79.3566 14.5033 79.6384C14.5594 79.9203 14.5306 80.2125 14.4207 80.478C14.3107 80.7435 14.1244 80.9705 13.8855 81.1302C13.6465 81.2898 13.3655 81.375 13.0781 81.375C12.6927 81.375 12.3231 81.222 12.0506 80.9494C11.7781 80.6769 11.625 80.3073 11.625 79.9219ZM11.625 87.0422V85.7344C11.625 85.349 11.7781 84.9794 12.0506 84.7069C12.3231 84.4344 12.6927 84.2813 13.0781 84.2813C13.4635 84.2813 13.8331 84.4344 14.1057 84.7069C14.3782 84.9794 14.5313 85.349 14.5313 85.7344V87.0422C13.5724 87.238 12.5839 87.238 11.625 87.0422ZM20.3438 79.9219C20.3408 81.0444 20.0767 82.1508 19.5723 83.1536C19.0679 84.1564 18.337 85.028 17.4375 85.6996C17.4254 84.6357 17.0219 83.6135 16.3041 82.8282C16.8721 82.2032 17.2464 81.4268 17.3814 80.5931C17.5165 79.7595 17.4065 78.9046 17.0648 78.1323C16.7231 77.3599 16.1644 76.7035 15.4567 76.2427C14.749 75.7819 13.9227 75.5367 13.0781 75.5367C12.2336 75.5367 11.4073 75.7819 10.6996 76.2427C9.99184 76.7035 9.43319 77.3599 9.09151 78.1323C8.74982 78.9046 8.63982 79.7595 8.77486 80.5931C8.9099 81.4268 9.28418 82.2032 9.8522 82.8282C9.13436 83.6135 8.73087 84.6357 8.71876 85.6996C7.73235 84.9548 6.9526 83.9703 6.4535 82.8396C5.95439 81.7088 5.75249 80.4693 5.86694 79.2386C5.9814 78.0079 6.40841 76.8269 7.10747 75.8076C7.80653 74.7883 8.75445 73.9645 9.86129 73.4144C10.9681 72.8643 12.1972 72.6061 13.4318 72.6644C14.6664 72.7227 15.8657 73.0955 16.9158 73.7474C17.9659 74.3993 18.832 75.3087 19.4319 76.3893C20.0319 77.4699 20.3457 78.6859 20.3438 79.9219Z" fill="black"/>
<path d="M87.157 57.4217C86.9847 57.504 86.8303 57.6194 86.7027 57.7614C86.5751 57.9034 86.4767 58.0691 86.4131 58.2491C86.3495 58.4291 86.3221 58.6199 86.3323 58.8106C86.3425 59.0012 86.3901 59.188 86.4726 59.3602C87.2006 60.8671 87.3801 62.5807 86.9801 64.2057C86.58 65.8308 85.6256 67.2653 84.2812 68.262C84.2691 67.1981 83.8656 66.176 83.1478 65.3907C83.7158 64.7657 84.0901 63.9892 84.2251 63.1556C84.3602 62.322 84.2502 61.467 83.9085 60.6947C83.5668 59.9224 83.0082 59.266 82.3004 58.8052C81.5927 58.3444 80.7664 58.0991 79.9219 58.0991C79.0774 58.0991 78.251 58.3444 77.5433 58.8052C76.8356 59.266 76.2769 59.9224 75.9352 60.6947C75.5936 61.467 75.4835 62.322 75.6186 63.1556C75.7536 63.9892 76.1279 64.7657 76.6959 65.3907C75.9781 66.176 75.5746 67.1981 75.5625 68.262C74.1213 67.184 73.133 65.608 72.7902 63.8411C72.4475 62.0742 72.7747 60.243 73.7083 58.7042C74.6418 57.1655 76.1147 56.0293 77.8401 55.5172C79.5655 55.005 81.4198 55.1535 83.0417 55.9337C83.3847 56.0745 83.7686 56.0788 84.1147 55.9457C84.4608 55.8127 84.7429 55.5524 84.9034 55.2182C85.0638 54.8839 85.0904 54.501 84.9777 54.1477C84.8651 53.7945 84.6216 53.4977 84.2972 53.3181C82.5514 52.4788 80.6016 52.1579 78.6789 52.3933C76.7562 52.6287 74.9414 53.4106 73.4496 54.6462L67.1591 48.9267C70.2576 45.1032 72.1395 40.439 72.5622 35.5358C72.9849 30.6325 71.929 25.7151 69.5306 21.4176L72.2203 19.7029C73.8243 21.5745 76.0541 22.799 78.4941 23.1483C80.9342 23.4976 83.4179 22.9479 85.4826 21.6015C87.5473 20.2552 89.0521 18.204 89.7165 15.8304C90.3809 13.4567 90.1597 10.9225 89.094 8.69988C89.0194 8.51605 88.908 8.34943 88.7666 8.21029C88.6252 8.07115 88.4568 7.96243 88.2718 7.89084C88.0868 7.81925 87.8891 7.7863 87.6909 7.79402C87.4926 7.80175 87.2981 7.84997 87.1192 7.93574C86.9403 8.0215 86.7809 8.14299 86.6507 8.29271C86.5206 8.44242 86.4225 8.6172 86.3624 8.80628C86.3024 8.99536 86.2817 9.19473 86.3016 9.3921C86.3216 9.58948 86.3817 9.78068 86.4784 9.95393C87.2058 11.4614 87.3844 13.1755 86.9833 14.8006C86.5822 16.4257 85.6266 17.8599 84.2812 18.8558C84.2691 17.7919 83.8656 16.7697 83.1478 15.9844C83.7158 15.3595 84.0901 14.583 84.2251 13.7493C84.3602 12.9157 84.2502 12.0608 83.9085 11.2885C83.5668 10.5162 83.0082 9.85974 82.3004 9.39896C81.5927 8.93817 80.7664 8.69287 79.9219 8.69287C79.0774 8.69287 78.251 8.93817 77.5433 9.39896C76.8356 9.85974 76.2769 10.5162 75.9352 11.2885C75.5936 12.0608 75.4835 12.9157 75.6186 13.7493C75.7536 14.583 76.1279 15.3595 76.6959 15.9844C75.9781 16.7697 75.5746 17.7919 75.5625 18.8558C74.1213 17.7777 73.133 16.2017 72.7902 14.4348C72.4475 12.668 72.7747 10.8368 73.7083 9.29799C74.6418 7.75921 76.1147 6.62307 77.8401 6.1109C79.5655 5.59874 81.4198 5.74723 83.0417 6.52746C83.3847 6.66821 83.7686 6.67252 84.1147 6.5395C84.4608 6.40647 84.7429 6.14619 84.9034 5.81192C85.0638 5.47766 85.0904 5.09471 84.9777 4.74147C84.8651 4.38823 84.6216 4.09143 84.2972 3.91183C82.9331 3.25134 81.4374 2.9076 79.9219 2.90627C78.2222 2.90287 76.5489 3.32626 75.0554 4.13763C73.562 4.949 72.2961 6.12237 71.374 7.55011C70.4518 8.97786 69.9029 10.6143 69.7776 12.3093C69.6523 14.0043 69.9546 15.7037 70.6567 17.2515L67.9757 18.9575C65.6909 15.8073 62.6966 13.2392 59.2352 11.4608C58.8924 11.2843 58.4935 11.2512 58.1263 11.3688C57.7591 11.4864 57.4536 11.745 57.2771 12.0878C57.1006 12.4306 57.0675 12.8295 57.1851 13.1967C57.3027 13.564 57.5613 13.8694 57.9041 14.0459C61.3276 15.8036 64.2257 18.4349 66.3046 21.6734C66.3148 21.6908 66.3148 21.7112 66.3264 21.7301C66.3381 21.7489 66.3758 21.7867 66.3991 21.8172C68.4731 25.1149 69.6255 28.9081 69.7362 32.8022C69.847 36.6963 68.9121 40.549 67.0288 43.9592C65.1455 47.3694 62.3827 50.2125 59.0279 52.1927C55.673 54.173 51.8488 55.2179 47.9531 55.2188C46.3264 55.213 44.7054 55.0263 43.12 54.6622C42.748 54.5869 42.3613 54.6601 42.0425 54.8662C41.7238 55.0724 41.4984 55.395 41.4145 55.7652C41.3305 56.1354 41.3948 56.5237 41.5935 56.8471C41.7922 57.1706 42.1096 57.4034 42.4777 57.4958C43.8016 57.7857 45.1467 57.9679 46.5 58.0407V69.8663C44.5697 70.1449 42.7603 70.9725 41.2871 72.2506C39.814 73.5287 38.7394 75.2033 38.1913 77.075C37.6431 78.9466 37.6446 80.9364 38.1955 82.8072C38.7464 84.678 39.8236 86.3511 41.2986 87.6269C42.7736 88.9028 44.5843 89.7278 46.515 90.0035C48.4456 90.2793 50.4149 89.9942 52.1881 89.1822C53.9613 88.3702 55.4637 87.0656 56.5163 85.4238C57.5689 83.782 58.1273 81.8722 58.125 79.9219C58.1256 78.4058 57.7839 76.9092 57.1252 75.5436C57.0507 75.3598 56.9393 75.1932 56.7979 75.054C56.6565 74.9149 56.4881 74.8062 56.3031 74.7346C56.118 74.663 55.9203 74.6301 55.7221 74.6378C55.5239 74.6455 55.3293 74.6937 55.1504 74.7795C54.9716 74.8653 54.8121 74.9867 54.682 75.1365C54.5518 75.2862 54.4537 75.461 54.3937 75.65C54.3336 75.8391 54.313 76.0385 54.3329 76.2359C54.3528 76.4332 54.413 76.6244 54.5096 76.7977C55.2371 78.3052 55.4156 80.0193 55.0145 81.6444C54.6134 83.2694 53.6578 84.7036 52.3125 85.6995C52.3004 84.6356 51.8969 83.6135 51.1791 82.8282C51.7471 82.2032 52.1214 81.4267 52.2564 80.5931C52.3914 79.7595 52.2814 78.9045 51.9397 78.1322C51.5981 77.3599 51.0394 76.7035 50.3317 76.2427C49.624 75.7819 48.7976 75.5366 47.9531 75.5366C47.1086 75.5366 46.2823 75.7819 45.5745 76.2427C44.8668 76.7035 44.3082 77.3599 43.9665 78.1322C43.6248 78.9045 43.5148 79.7595 43.6498 80.5931C43.7849 81.4267 44.1592 82.2032 44.7272 82.8282C44.0093 83.6135 43.6058 84.6356 43.5937 85.6995C42.1525 84.6215 41.1643 83.0455 40.8215 81.2786C40.4787 79.5117 40.806 77.6805 41.7395 76.1417C42.673 74.603 44.146 73.4668 45.8714 72.9547C47.5968 72.4425 49.4511 72.591 51.073 73.3712C51.416 73.512 51.7998 73.5163 52.1459 73.3832C52.492 73.2502 52.7742 72.9899 52.9346 72.6557C53.0951 72.3214 53.1217 71.9385 53.009 71.5852C52.8963 71.232 52.6529 70.9352 52.3285 70.7556C51.4048 70.3138 50.4196 70.0144 49.4062 69.8677V58.0509C55.3426 57.7112 60.9552 55.2335 65.2061 51.0759L71.4981 56.7954C70.4976 58.2716 69.9028 59.9848 69.7733 61.7634C69.6438 63.5419 69.9841 65.3233 70.7602 66.9288C71.5362 68.5343 72.7207 69.9076 74.1949 70.911C75.669 71.9144 77.3811 72.5126 79.1594 72.6457C80.9377 72.7787 82.7197 72.442 84.3267 71.6691C85.9338 70.8963 87.3095 69.7145 88.3158 68.2423C89.3221 66.7701 89.9237 65.0593 90.0603 63.2813C90.1969 61.5032 89.8637 59.7206 89.094 58.1119C89.0122 57.9394 88.8972 57.7846 88.7556 57.6565C88.614 57.5284 88.4485 57.4294 88.2686 57.3653C88.0887 57.3012 87.8979 57.2732 87.7072 57.2829C87.5164 57.2925 87.3295 57.3397 87.157 57.4217ZM79.9219 11.625C80.2093 11.625 80.4902 11.7102 80.7292 11.8699C80.9681 12.0296 81.1544 12.2565 81.2644 12.5221C81.3744 12.7876 81.4031 13.0798 81.3471 13.3616C81.291 13.6435 81.1526 13.9024 80.9494 14.1057C80.7462 14.3089 80.4872 14.4473 80.2054 14.5034C79.9235 14.5594 79.6313 14.5306 79.3658 14.4207C79.1003 14.3107 78.8733 14.1244 78.7136 13.8855C78.554 13.6465 78.4687 13.3655 78.4687 13.0781C78.4687 12.6928 78.6218 12.3231 78.8944 12.0506C79.1669 11.7781 79.5365 11.625 79.9219 11.625ZM78.4687 18.8906C78.4687 18.5053 78.6218 18.1356 78.8944 17.8631C79.1669 17.5906 79.5365 17.4375 79.9219 17.4375C80.3073 17.4375 80.6769 17.5906 80.9494 17.8631C81.2219 18.1356 81.375 18.5053 81.375 18.8906V20.1985C80.4161 20.3942 79.4276 20.3942 78.4687 20.1985V18.8906ZM47.9531 78.4688C48.2405 78.4688 48.5215 78.554 48.7604 78.7137C48.9994 78.8733 49.1856 79.1003 49.2956 79.3658C49.4056 79.6313 49.4344 79.9235 49.3783 80.2054C49.3223 80.4873 49.1839 80.7462 48.9806 80.9494C48.7774 81.1526 48.5185 81.291 48.2366 81.3471C47.9547 81.4032 47.6626 81.3744 47.397 81.2644C47.1315 81.1544 46.9046 80.9682 46.7449 80.7292C46.5852 80.4902 46.5 80.2093 46.5 79.9219C46.5 79.5365 46.6531 79.1669 46.9256 78.8944C47.1981 78.6219 47.5677 78.4688 47.9531 78.4688ZM46.5 85.7344C46.5 85.349 46.6531 84.9794 46.9256 84.7069C47.1981 84.4344 47.5677 84.2813 47.9531 84.2813C48.3385 84.2813 48.7081 84.4344 48.9806 84.7069C49.2531 84.9794 49.4062 85.349 49.4062 85.7344V87.0422C48.4474 87.2379 47.4589 87.2379 46.5 87.0422V85.7344ZM79.9219 61.0313C80.2093 61.0313 80.4902 61.1165 80.7292 61.2762C80.9681 61.4358 81.1544 61.6628 81.2644 61.9283C81.3744 62.1938 81.4031 62.486 81.3471 62.7679C81.291 63.0498 81.1526 63.3087 80.9494 63.5119C80.7462 63.7151 80.4872 63.8535 80.2054 63.9096C79.9235 63.9657 79.6313 63.9369 79.3658 63.8269C79.1003 63.7169 78.8733 63.5307 78.7136 63.2917C78.554 63.0527 78.4687 62.7718 78.4687 62.4844C78.4687 62.099 78.6218 61.7294 78.8944 61.4569C79.1669 61.1844 79.5365 61.0313 79.9219 61.0313ZM78.4687 69.6047V68.2969C78.4687 67.9115 78.6218 67.5419 78.8944 67.2694C79.1669 66.9969 79.5365 66.8438 79.9219 66.8438C80.3073 66.8438 80.6769 66.9969 80.9494 67.2694C81.2219 67.5419 81.375 67.9115 81.375 68.2969V69.6047C80.4161 69.8004 79.4276 69.8004 78.4687 69.6047Z" fill="black"/>
</svg>
